<svg class="w-full" xmlns="http://www.w3.org/2000/svg" width="100" height="112"
    viewBox="0 0 100 112" fill="none">
    <path fill-rule="evenodd" clip-rule="evenodd"
        d="M97.4973 51L100 43.8121L95.5808 37.6244L95.95 30.0213L89.9612 25.3268L88.1754 17.9313L81.1084 15.1142L77.313 8.51905L69.7307 7.80324L64.2341 2.54661L56.7586 4.00128L50 0.5L43.2405 4.00128L35.7736 2.54661L30.2693 7.80324L22.6947 8.51905L18.8993 15.1142L11.8246 17.9313L10.0465 25.3268L4.05687 30.0213L4.42684 37.6244L0 43.8121L2.50179 51L0 58.1879L4.42684 64.3756L4.05687 71.9787L10.0465 76.6732L11.5503 82.9284L11.8246 84.0696L16.4146 85.8967H16.4155L18.8993 86.8858L22.1171 92.4773L22.6947 93.481L25.0812 93.7065L29.2756 94.1028L30.2693 94.1968L31.551 95.4208L31.6996 95.5626L35.7736 99.4534L36.0598 99.3979L37.5132 99.1143L43.2405 97.9987L43.966 98.3746L47.6221 100.268L50 101.5L50.2837 101.353L51.068 100.946L56.3502 98.2105L56.7586 97.9987L58.2675 98.2925L61.2777 98.8785L62.5098 99.1177L64.2341 99.4534L68.021 95.8317L69.7307 94.1968L69.8119 94.1891L77.313 93.481L78.2827 91.7957L81.1084 86.8858L83.5888 85.8975C83.5888 85.8975 83.5905 85.8984 83.5905 85.8975L88.1754 84.0696L88.4506 82.9293L89.9612 76.6732L95.95 71.9787L95.5808 64.3756L100 58.1879L97.4973 51ZM77.536 82.9301C69.8913 77.1132 60.3524 73.6571 50 73.6571C39.6476 73.6571 30.113 77.1123 22.4674 82.9276C21.6754 82.2434 20.9226 81.5438 20.1852 80.8066C12.556 73.1796 7.8369 62.6442 7.8369 51C7.8369 39.3558 12.556 28.8203 20.1852 21.1942C27.8137 13.5672 38.36 8.84961 50 8.84961C61.64 8.84961 72.1863 13.5672 79.8148 21.1942C87.4517 28.8203 92.1708 39.3567 92.1708 51C92.1708 62.6433 87.4517 73.1796 79.8148 80.8066C79.0834 81.5446 78.3212 82.2451 77.536 82.9301Z"
        fill="#006A63" />
    <path fill-rule="evenodd" clip-rule="evenodd"
        d="M96 51.2407C96 64.041 90.7173 75.6073 82.1961 83.9088C81.6374 84.4532 81.0639 84.9839 80.4775 85.5C79.9438 85.0303 79.3989 84.5726 78.8427 84.1277C78.8177 84.1071 78.7926 84.0865 78.7667 84.0676C78.7184 84.0281 78.6691 83.9886 78.6199 83.9508C78.3695 83.7516 78.1164 83.5558 77.8617 83.3635C77.8513 83.3557 77.8418 83.3489 77.8314 83.3411C78.6251 82.6524 79.3954 81.9483 80.1347 81.2063C87.8536 73.5386 92.6233 62.947 92.6233 51.2407C92.6233 39.5344 87.8536 28.9427 80.1347 21.2759C72.4244 13.6082 61.7727 8.86539 50 8.86539C38.2273 8.86539 27.5756 13.6082 19.8653 21.2759C12.1542 28.9427 7.38447 39.5352 7.38447 51.2407C7.38447 62.9461 12.1542 73.5386 19.8653 81.2063C20.6106 81.9474 21.3714 82.6507 22.172 83.3386C22.0148 83.4562 21.8577 83.5764 21.7022 83.6992C21.545 83.8195 21.3887 83.9423 21.2333 84.0676C21.2082 84.0865 21.1832 84.1063 21.1581 84.1269C20.602 84.5717 20.057 85.0303 19.5225 85.5C18.9361 84.9839 18.3635 84.4532 17.8048 83.9079C9.28959 75.6073 4 64.041 4 51.2407C4 25.98 24.5953 5.5 50 5.5C75.4047 5.5 96 25.98 96 51.2407Z"
        fill="white" />
    <path fill-rule="evenodd" clip-rule="evenodd"
        d="M100 82.5V91.5421V92.1667V92.7913V93.4158V94.0404V94.3485V94.9731V95.5977V96.2222V96.8468V97.1549V97.4706V97.7786V98.4032V99.0278V99.6524V100.277V100.585V100.901V101.209V101.833V102.458V111.5C95.3887 105.98 4.61131 105.98 0 111.5V102.458V101.833V101.209V100.901V100.585V100.277V99.6524V99.0278V98.4032V97.7786V97.4706V97.1549V96.8468V96.2222V95.5977V94.9731V94.3485V94.0404V93.4158V92.7913V92.1667V91.5421V82.5C4.61131 88.0195 95.3887 88.0195 100 82.5Z"
        fill="#006A63" />
    <path
        d="M93 50.2582C93 62.0668 88.1862 72.7587 80.4074 80.4944C79.712 81.1851 78.9877 81.8531 78.2464 82.4992H78.2456C78.1981 82.4612 78.1506 82.4224 78.1022 82.3845C77.8588 82.1871 77.6112 81.9923 77.3576 81.8076C77.3475 81.8 77.3381 81.7932 77.3279 81.7856C78.1073 81.1092 78.8638 80.4176 79.5898 79.6889C87.1702 72.1581 91.8542 61.7556 91.8542 50.2582C91.8542 38.7609 87.1702 28.3583 79.5898 20.8284C72.018 13.2976 61.5575 8.63944 49.9962 8.63944C38.4349 8.63944 27.9744 13.2976 20.4025 20.8284C12.8298 28.3583 8.14579 38.7617 8.14579 50.2582C8.14579 61.7547 12.8298 72.1581 20.4025 79.6889C21.1345 80.4168 21.8816 81.1075 22.6678 81.7831C22.6687 81.784 22.6704 81.7848 22.6712 81.7856C22.6017 81.8362 22.5321 81.8885 22.4626 81.94C22.3769 82.0058 22.2913 82.0699 22.2065 82.1373C22.0529 82.2571 21.9003 82.3785 21.7468 82.5H21.7459C21.0047 81.8531 20.2872 81.1851 19.5926 80.4944C11.8138 72.7587 7 62.0668 7 50.2582C7 38.4497 11.8138 27.7586 19.5926 20.0229C27.3705 12.2796 38.1219 7.5 49.9962 7.5C61.8704 7.5 72.621 12.2796 80.4074 20.0229C88.1862 27.7586 93 38.4497 93 50.2582Z"
        fill="#006A63" />
    <path fill-rule="evenodd" clip-rule="evenodd"
        d="M67.9833 21.5601C67.9611 21.52 67.9241 21.5 67.8641 21.5H65.8271C65.7679 21.5 65.7383 21.52 65.7087 21.5601L64.3008 23.6974L62.8781 21.5601C62.8559 21.52 62.8189 21.5 62.7745 21.5H60.7219C60.6775 21.5 60.6331 21.52 60.6183 21.5601C60.5813 21.6001 60.5813 21.6334 60.6183 21.6735L63.2704 25.7013V28.3866C63.2704 28.4533 63.3378 28.5 63.397 28.5H65.1676C65.2342 28.5 65.286 28.4533 65.286 28.3866V25.7414L67.9833 21.6735C68.0056 21.6334 68.0056 21.6001 67.9833 21.5601ZM60.8181 28.3265L57.9292 21.5801C57.9061 21.5334 57.8617 21.5 57.8173 21.5H56.18C56.1282 21.5 56.0838 21.5334 56.0616 21.5801L53.1422 28.3332C53.1274 28.3732 53.1274 28.4133 53.1496 28.4533C53.1718 28.48 53.2162 28.5 53.2532 28.5H55.0912C55.143 28.5 55.18 28.4666 55.2022 28.4199L55.6841 27.1707H58.2104L58.7293 28.4199C58.7441 28.4666 58.7959 28.5 58.8329 28.5H60.7071C60.7811 28.5 60.8403 28.4533 60.8403 28.3866C60.8403 28.3666 60.8255 28.3465 60.8181 28.3265ZM56.254 25.6279L56.958 23.7708L57.6619 25.6279H56.254ZM52.3791 23.3238C52.1348 22.876 51.8166 22.5157 51.4309 22.248C51.0534 21.9811 50.6085 21.7876 50.1118 21.6735C49.6381 21.56 49.134 21.5 48.6373 21.5H46.1258C46.0518 21.5 46 21.56 46 21.6134V28.3866C46 28.4533 46.0518 28.5 46.1258 28.5H48.7121C49.2006 28.5 49.6899 28.4333 50.1636 28.2998C50.6381 28.1664 51.0756 27.9529 51.4531 27.6652C51.8388 27.385 52.1422 27.0106 52.3791 26.5635C52.6093 26.1224 52.7277 25.5879 52.7277 24.9867C52.7277 24.3254 52.6093 23.7708 52.3791 23.3238ZM50.5567 25.8822C50.4383 26.1091 50.2829 26.3026 50.0822 26.4494C49.875 26.5902 49.6529 26.697 49.3931 26.7504C49.1266 26.8171 48.838 26.8571 48.5559 26.8571H47.986V23.1369H48.5929C48.875 23.1369 49.1488 23.1636 49.4005 23.217C49.6529 23.2771 49.8898 23.3838 50.0822 23.5239C50.2829 23.6574 50.4383 23.8516 50.5567 24.0785C50.6751 24.3187 50.7343 24.6263 50.7343 24.9867C50.7343 25.347 50.6751 25.6413 50.5567 25.8822Z"
        fill="#006A63" />
    <path fill-rule="evenodd" clip-rule="evenodd"
        d="M77.2175 71.2699L71.4726 62.8845L76.5374 56.6944C76.5843 56.6256 76.6077 56.5645 76.5609 56.5263C76.5374 56.4651 76.475 56.4184 76.4125 56.4184H71.3165C71.2774 56.4184 71.215 56.4422 71.1915 56.4804L68.284 60.0379V56.4422C68.284 56.3343 68.2215 56.2732 68.1356 56.2732H64.1498C64.064 56.2732 63.9781 56.3343 63.9781 56.4422V71.3386C63.9781 71.438 64.064 71.5 64.1498 71.5H68.1356C68.2215 71.5 68.284 71.438 68.284 71.3386V66.7867L68.8391 66.1209L72.4892 71.4151C72.5282 71.4839 72.5751 71.5 72.6375 71.5H77.0917C77.1307 71.5 77.201 71.4609 77.2175 71.4151C77.2643 71.3769 77.2409 71.3157 77.2175 71.2699ZM63.0638 68.9667L60.8832 66.7247C60.8363 66.6636 60.7504 66.6407 60.688 66.6407H60.6724C60.6021 66.6407 60.524 66.6636 60.4772 66.7247C60.2274 67.039 59.9299 67.2835 59.5473 67.4899C59.1171 67.7201 58.594 67.8423 57.9999 67.8423C57.4681 67.8423 56.9997 67.743 56.5773 67.5519C56.1314 67.3676 55.7645 67.1001 55.4523 66.7485C55.1547 66.4114 54.8971 65.9986 54.7254 65.501C54.538 65.0186 54.4513 64.4607 54.4513 63.8789C54.4513 63.2972 54.538 62.7537 54.7254 62.2798C54.8971 61.7975 55.1547 61.3618 55.4679 61.0094C55.7645 60.6807 56.1479 60.3894 56.5929 60.1984C57.0388 59.992 57.5306 59.8926 58.0389 59.8926C58.5472 59.8926 58.9922 59.992 59.4615 60.1831C59.7971 60.3436 60.1172 60.5584 60.3523 60.8259C60.4147 60.8871 60.4772 60.9253 60.5631 60.9253C60.649 60.9253 60.7114 60.8871 60.7504 60.8489L62.9624 58.584C63.0014 58.5152 63.0248 58.454 63.0248 58.37C63.0248 58.2935 63.0014 58.2247 62.9624 58.1636C62.3916 57.5819 61.6647 57.1301 60.8363 56.8167C59.883 56.4651 58.9063 56.2732 57.9296 56.2732C56.874 56.2732 55.8738 56.4651 54.9596 56.8167C54.0531 57.1683 53.2403 57.6659 52.5603 58.3317C51.8646 58.9975 51.3338 59.8086 50.9504 60.7419C50.5522 61.6752 50.3562 62.7384 50.3562 63.8789C50.3562 65.0195 50.5522 66.0369 50.9269 66.9702C51.3103 67.9111 51.8412 68.7221 52.5213 69.3803C53.1779 70.069 53.9829 70.5888 54.8971 70.9641C55.8114 71.3157 56.8037 71.5 57.8671 71.5C59.0546 71.5 60.1172 71.2928 61.0089 70.8571C61.813 70.4818 62.4931 69.985 63.0873 69.365C63.1731 69.258 63.1731 69.0737 63.0638 68.9667ZM50.2313 71.1246L44.4404 56.4422C44.3936 56.3343 44.3077 56.2732 44.2296 56.2732H40.9395C40.8302 56.2732 40.7435 56.3343 40.7044 56.4422L34.8433 71.1476C34.8277 71.2316 34.8277 71.3157 34.8667 71.3998C34.9136 71.4609 34.9994 71.5 35.0775 71.5H38.751C38.8603 71.5 38.9384 71.438 38.9852 71.3386L39.9385 68.6151H45.0112L46.0503 71.3386C46.0737 71.438 46.1752 71.5 46.2611 71.5H50.0205C50.0951 71.5 50.1575 71.4754 50.2009 71.4321C50.2452 71.3887 50.2703 71.3276 50.2703 71.2546C50.2703 71.2087 50.2547 71.1705 50.2313 71.1246ZM41.0878 65.2488L42.5104 61.2166L43.9087 65.2488H41.0878ZM34.2968 65.5621C34.1242 65.1486 33.9134 64.774 33.6168 64.4607C33.3427 64.1465 32.9992 63.9019 32.6158 63.6879C32.4518 63.6114 32.2801 63.5265 32.0927 63.4654C32.5533 63.2132 32.9367 62.8998 33.2568 62.5091C33.7261 61.9274 33.9525 61.1775 33.9525 60.3054C33.9525 59.5173 33.8041 58.8523 33.4919 58.3317C33.1709 57.8111 32.7494 57.3984 32.241 57.0842C31.7484 56.7938 31.2019 56.5874 30.5843 56.4651C29.9901 56.3343 29.4115 56.2732 28.8416 56.2732H23.1366C23.0117 56.2732 22.9016 56.3802 22.9016 56.5263V71.2546C22.9016 71.3998 23.0117 71.5 23.1366 71.5H28.8416C29.5451 71.5 30.2408 71.4151 30.9044 71.2699C31.5766 71.1246 32.1942 70.8801 32.7494 70.5276C33.2802 70.176 33.7261 69.6937 34.0618 69.1128C34.3827 68.5311 34.5466 67.8041 34.5466 66.9702C34.5466 66.4572 34.4686 65.9757 34.2968 65.5621ZM26.7234 59.6013H28.185C28.8651 59.6013 29.3725 59.7016 29.6934 59.9079C29.9901 60.099 30.1384 60.3894 30.1384 60.7801C30.1384 61.2395 29.9901 61.5529 29.6934 61.7822C29.3959 62.0276 28.9275 62.1346 28.3333 62.1346H26.7234V59.6013ZM30.4125 67.3676C30.2876 67.5748 30.1384 67.72 29.9433 67.8271C29.7325 67.9264 29.4827 68.0105 29.2242 68.0563C28.9509 68.0946 28.6699 68.1328 28.4192 68.1328H26.7234V65.2717H28.3958C29.0993 65.2717 29.67 65.3711 30.076 65.5851C30.436 65.7914 30.6077 66.1209 30.6077 66.6407C30.6077 66.932 30.5374 67.1842 30.4125 67.3676ZM86.9707 35.6299C86.923 35.5459 86.8371 35.5 86.7357 35.5H82.6406C82.5313 35.5 82.4688 35.5459 82.4064 35.6299L79.5847 40.2821L76.7404 35.6299C76.7014 35.5459 76.6155 35.5 76.5296 35.5H72.4111C72.3244 35.5 72.2463 35.5459 72.1995 35.6299C72.137 35.7064 72.137 35.7904 72.1995 35.8754L77.5298 44.6437V50.4814C77.5298 50.6266 77.6547 50.726 77.7796 50.726H81.3282C81.4531 50.726 81.5546 50.6266 81.5546 50.4814V44.7278L86.9707 35.8754C87.0098 35.7904 87.0098 35.7064 86.9707 35.6299ZM71.2696 47.115H65.1821V44.6819H70.5896C70.7622 44.6819 70.8871 44.5367 70.8871 44.3754V41.5449C70.8871 41.3844 70.7622 41.2383 70.5896 41.2383H65.1821V39.0736H70.9261C71.0744 39.0736 71.2072 38.9505 71.2072 38.7823V35.8142C71.2072 35.6452 71.0744 35.5 70.9261 35.5H61.6959C61.5476 35.5 61.3993 35.6452 61.3993 35.8142V50.4202C61.3993 50.5808 61.5476 50.726 61.6959 50.726H71.2696C71.4179 50.726 71.5671 50.5808 71.5671 50.4202V47.4055C71.5671 47.2373 71.4179 47.115 71.2696 47.115ZM59.0468 35.5H55.8816C55.6552 35.5 55.4601 35.6911 55.4601 35.9212V43.251L50.4733 35.7904C50.4342 35.6299 50.2625 35.5 50.0673 35.5H46.9099C46.6757 35.5 46.4884 35.6911 46.4884 35.9212V50.3132C46.4884 50.5425 46.6757 50.726 46.9099 50.726H50.0673C50.3015 50.726 50.4976 50.5425 50.4976 50.3132V42.9988L55.4991 50.4967C55.585 50.6419 55.7177 50.726 55.8816 50.726H59.0468C59.281 50.726 59.4693 50.5425 59.4693 50.3132V35.9212C59.4693 35.6911 59.281 35.5 59.0468 35.5ZM44.9175 39.9305C44.5341 39.0124 44.0032 38.2014 43.3466 37.5356C42.6665 36.8927 41.8772 36.3722 40.9473 36.0206C40.0331 35.6681 39.0399 35.5 37.9773 35.5C36.9147 35.5 35.9224 35.6681 35.0072 36.0206C34.093 36.3722 33.288 36.8927 32.6314 37.5356C31.9756 38.2014 31.4439 39.0124 31.0614 39.9305C30.7014 40.8638 30.5062 41.9041 30.5062 43.0675C30.5062 44.231 30.7014 45.2475 31.0614 46.1817C31.4439 47.115 31.9756 47.949 32.6314 48.6071C33.288 49.2721 34.093 49.8156 35.0072 50.1909C35.9224 50.5425 36.9147 50.726 37.9773 50.726C39.0399 50.726 40.0331 50.5425 40.9707 50.1909C41.8772 49.8156 42.6665 49.2721 43.3466 48.6071C44.0032 47.949 44.5341 47.115 44.9175 46.1817C45.2766 45.2475 45.4639 44.1843 45.4639 43.0675C45.4639 41.9508 45.2766 40.8638 44.9175 39.9305ZM41.2049 44.7049C41.0332 45.2017 40.7756 45.6153 40.478 45.9745C40.1658 46.3269 39.798 46.5944 39.3764 46.8008C38.954 46.9927 38.4856 47.0921 37.9773 47.0921C37.469 47.0921 37.0006 46.9927 36.5781 46.8008C36.1488 46.5944 35.7888 46.3269 35.4921 45.9745C35.1799 45.6153 34.9448 45.2017 34.773 44.7049C34.5857 44.2072 34.4998 43.6484 34.4998 43.0675C34.4998 42.4867 34.5857 41.9423 34.7496 41.4608C34.9214 40.9631 35.1564 40.5496 35.4765 40.2209C35.7732 39.8617 36.1488 39.5933 36.5781 39.387C37.0006 39.2035 37.469 39.0965 37.9773 39.0965C38.4856 39.0965 38.9774 39.2035 39.3998 39.387C39.8214 39.5933 40.1814 39.8617 40.478 40.198C40.799 40.5496 41.0332 40.9631 41.2049 41.4608C41.3689 41.9423 41.4782 42.4858 41.4782 43.0675C41.4782 43.6493 41.3689 44.2072 41.2049 44.7049ZM28.3646 35.5H23.887C23.7378 35.5 23.5894 35.607 23.5504 35.7522L20.8779 44.1461L18.0961 35.7522C18.0328 35.607 17.9078 35.5 17.7595 35.5H13.3444C13.1483 35.5 13 35.6682 13 35.8524V50.3744C13 50.5655 13.1483 50.726 13.3444 50.726H16.1652C16.271 50.726 16.3604 50.6861 16.4246 50.6215C16.4879 50.5578 16.5252 50.4703 16.5252 50.3744V50.3362L16.4627 42.1725L18.8611 49.3188C18.901 49.464 19.0494 49.5634 19.1977 49.5634H22.3004C22.4488 49.5634 22.5971 49.464 22.6361 49.3188L25.1213 42.1105L25.0588 50.3744C25.0588 50.4814 25.0979 50.5655 25.1603 50.6266C25.2228 50.6878 25.3086 50.726 25.4188 50.726H28.3646C28.5597 50.726 28.7245 50.5655 28.7245 50.3744V35.8524C28.7245 35.6682 28.5597 35.5 28.3646 35.5Z"
        fill="#006A63" />
    <path fill-rule="evenodd" clip-rule="evenodd"
        d="M94.7772 100.654H90.2077V98.7332H94.2691C94.4006 98.7332 94.4929 98.6226 94.4929 98.4875V96.2668C94.4929 96.1326 94.4006 96.0212 94.2691 96.0212H90.2077V94.3138H94.5236C94.6388 94.3138 94.7311 94.219 94.7311 94.0848V91.7448C94.7311 91.6185 94.6388 91.5 94.5236 91.5H87.6002C87.485 91.5 87.3774 91.6185 87.3774 91.7448V103.254C87.3774 103.381 87.485 103.5 87.6002 103.5H94.7772C94.8924 103.5 95 103.381 95 103.254V100.883C95 100.749 94.8924 100.654 94.7772 100.654ZM86.2769 100.654H81.7083V98.7332H85.7621C85.8927 98.7332 85.9849 98.6226 85.9849 98.4875V96.2668C85.9849 96.1326 85.8927 96.0212 85.7621 96.0212H81.7083V94.3138H86.0233C86.1309 94.3138 86.2308 94.219 86.2308 94.0848V91.7448C86.2308 91.6185 86.1309 91.5 86.0233 91.5H79.0923C78.977 91.5 78.8694 91.6185 78.8694 91.7448V103.254C78.8694 103.381 78.977 103.5 79.0923 103.5H86.2769C86.3853 103.5 86.5006 103.381 86.5006 103.254V100.883C86.5006 100.749 86.3853 100.654 86.2769 100.654ZM78.0694 91.5H69.6315C69.5384 91.5 69.4539 91.5869 69.4539 91.6974V94.0848C69.4539 94.2032 69.5384 94.2822 69.6315 94.2822H72.3388V103.302C72.3388 103.396 72.4157 103.5 72.5309 103.5H75.193C75.3006 103.5 75.3851 103.396 75.3851 103.302V94.2822H78.0694C78.1847 94.2822 78.2615 94.2032 78.2615 94.0848V91.6974C78.2615 91.5869 78.1847 91.5 78.0694 91.5ZM67.6926 91.5H65.3156C65.1389 91.5 65.0006 91.65 65.0006 91.8317V97.6101L61.2542 91.729C61.2234 91.6027 61.0928 91.5 60.9545 91.5H58.5775C58.4 91.5 58.2616 91.65 58.2616 91.8317V103.167C58.2616 103.349 58.4 103.5 58.5775 103.5H60.9545C61.1312 103.5 61.2695 103.349 61.2695 103.167V97.4127L62.5007 99.3447L65.0313 103.318C65.0928 103.436 65.185 103.5 65.3156 103.5H67.6926C67.8616 103.5 68.0076 103.349 68.0076 103.167V91.8317C68.0076 91.65 67.8616 91.5 67.6926 91.5ZM58.1464 103.207L56.3458 98.4129L53.8006 91.6342C53.7699 91.5474 53.7084 91.5 53.6384 91.5H51.1769C51.0924 91.5 51.0309 91.5474 51.0002 91.6342L47.6243 100.527L46.6007 103.223C46.5853 103.286 46.5853 103.349 46.616 103.42C46.6544 103.468 46.7159 103.5 46.7774 103.5H49.5308C49.6154 103.5 49.6777 103.452 49.7084 103.365L50.2839 101.641L50.423 101.223H54.2309L55.0079 103.365C55.0309 103.452 55.1078 103.5 55.1692 103.5H57.9927C58.0465 103.5 58.0926 103.48 58.125 103.446C58.1575 103.411 58.1771 103.36 58.1771 103.302C58.1771 103.27 58.1618 103.239 58.1464 103.207ZM52.3543 95.3973L53.4002 98.5752H51.2854L52.3543 95.3973ZM46.5392 103.207L43.971 98.5814L43.8925 98.4401C44.5157 98.1953 45.0084 97.8163 45.3772 97.3101C45.793 96.7406 46.0004 96.037 46.0004 95.1991C46.0004 94.5121 45.8698 93.9268 45.6308 93.4522C45.3926 92.9784 45.0545 92.5827 44.6617 92.2905C44.2468 92.0063 43.7849 91.8001 43.2931 91.6816C42.7928 91.5711 42.2694 91.5 41.7623 91.5H37.7315C37.6231 91.5 37.5232 91.5869 37.5232 91.6974V103.302C37.5232 103.396 37.6231 103.5 37.7315 103.5H40.2161C40.3313 103.5 40.4082 103.396 40.4082 103.302V98.899H40.9623L43.2077 103.381C43.2385 103.452 43.3085 103.5 43.3853 103.5H46.3616C46.4461 103.5 46.5084 103.452 46.5392 103.396C46.5699 103.333 46.5699 103.254 46.5392 103.207ZM40.3928 94.0058H41.5847C41.7623 94.0058 41.9544 94.0216 42.1465 94.0532C42.3309 94.069 42.4922 94.1401 42.6391 94.219C42.7774 94.298 42.8927 94.4006 42.9695 94.5437C43.0694 94.6937 43.1155 94.8753 43.1155 95.1201C43.1155 95.3816 43.0694 95.5948 42.9695 95.7369C42.8619 95.9027 42.7467 96.0212 42.593 96.1168C42.4308 96.1958 42.2387 96.2668 42.0466 96.2984C41.8391 96.33 41.6308 96.3458 41.4233 96.3458H40.3928V94.0058ZM37.4156 103.207L36.0709 99.6325L33.0622 91.6342C33.0315 91.5474 32.97 91.5 32.9077 91.5H30.4385C30.354 91.5 30.2925 91.5474 30.2618 91.6342L29.2919 94.1936L25.8699 103.223C25.8545 103.286 25.8545 103.349 25.8853 103.42C25.916 103.468 25.9775 103.5 26.039 103.5H28.8001C28.8769 103.5 28.9393 103.452 28.97 103.365L29.6923 101.223H33.4925L34.2771 103.365C34.2925 103.452 34.3693 103.5 34.4308 103.5H37.2543C37.3081 103.5 37.3559 103.48 37.3909 103.446C37.425 103.411 37.4464 103.36 37.4464 103.302C37.4464 103.27 37.431 103.239 37.4156 103.207ZM30.5469 98.5752L31.5655 95.5474L31.6159 95.3973L31.7141 95.693L32.6694 98.5752H30.5469ZM24.877 91.5H22.3617C22.2541 91.5 22.1389 91.6027 22.1389 91.729V98.5033C22.1389 98.8042 22.1081 99.0648 22.0467 99.3254C21.9775 99.5711 21.8853 99.7843 21.7384 99.9817C21.6155 100.155 21.4388 100.322 21.2159 100.425C21.0085 100.535 20.7387 100.598 20.4236 100.598C20.1086 100.598 19.8465 100.535 19.6236 100.425C19.4008 100.322 19.2386 100.18 19.1003 99.9817C18.9696 99.7843 18.8774 99.5711 18.7929 99.3254C18.7314 99.0648 18.7007 98.7884 18.7007 98.5033V91.729C18.7007 91.6027 18.6008 91.5 18.477 91.5H15.9925C15.8618 91.5 15.7543 91.6027 15.7543 91.729V98.7332C15.7543 99.4368 15.8618 100.076 16.0847 100.67C16.293 101.239 16.6157 101.744 17.0085 102.172C17.4081 102.582 17.9007 102.923 18.477 103.152C19.0465 103.381 19.7005 103.5 20.4006 103.5C21.1007 103.5 21.7538 103.381 22.331 103.152C22.9081 102.923 23.4161 102.582 23.8157 102.172C24.2238 101.744 24.5465 101.239 24.7694 100.67C24.9931 100.076 25.1007 99.4368 25.1007 98.7332V91.729C25.1007 91.6027 24.9931 91.5 24.877 91.5ZM14.3848 96.2984H10.9082C10.8006 96.2984 10.7084 96.3932 10.7084 96.5274V98.6542C10.7084 98.7884 10.8006 98.8832 10.9082 98.8832H12.0617V100.504C11.9003 100.567 11.7236 100.614 11.5468 100.654C11.3078 100.701 11.0388 100.717 10.7852 100.717C10.3233 100.717 9.92377 100.654 9.57714 100.488C9.22367 100.322 8.92314 100.108 8.7003 99.8317C8.4621 99.5553 8.28536 99.207 8.15388 98.82C8.03094 98.4243 7.96178 97.9821 7.96178 97.4917C7.96178 97.0337 8.0463 96.5906 8.16925 96.1958C8.3161 95.8238 8.5082 95.4763 8.74641 95.1991C8.98461 94.9069 9.26977 94.6937 9.59251 94.5279C9.92377 94.3848 10.2772 94.298 10.67 94.298C11.1157 94.298 11.5315 94.3848 11.8849 94.5594C12.1846 94.7253 12.4544 94.9227 12.6619 95.1517C12.6926 95.1991 12.7618 95.2306 12.8079 95.2306H12.8232C12.8847 95.2149 12.9462 95.1833 12.9846 95.1359L14.3848 93.1521C14.4616 93.0574 14.4463 92.9231 14.3541 92.8442C13.9545 92.4643 13.4465 92.1563 12.8386 91.9106C12.1539 91.65 11.3923 91.5 10.5769 91.5C9.8162 91.5 9.06231 91.65 8.39294 91.9264C7.72357 92.2037 7.12336 92.6143 6.63158 93.1205C6.1159 93.6426 5.72315 94.2822 5.43116 95.0174C5.14685 95.7606 5 96.5906 5 97.4917C5 98.3927 5.14685 99.207 5.43116 99.9501C5.7001 100.685 6.10053 101.318 6.59231 101.848C7.09263 102.369 7.69284 102.781 8.39294 103.073C9.07767 103.349 9.84693 103.5 10.6546 103.5C11.4623 103.5 12.1692 103.42 12.8232 103.239C13.4465 103.057 14.0006 102.844 14.477 102.582C14.5462 102.535 14.5931 102.464 14.5931 102.385V96.5274C14.5931 96.3932 14.4924 96.2984 14.3848 96.2984Z"
        fill="white" />
    <path fill-rule="evenodd" clip-rule="evenodd"
        d="M44.555 80.0331H42.8551L42.3278 78.5L41.8079 80.0331H40.108L41.489 80.9747L40.9616 82.5L42.3278 81.5513L43.7014 82.5L43.174 80.9747L44.555 80.0331ZM49.6622 80.0331H47.9623L47.4431 78.5L46.9232 80.0331H45.2233L46.5969 80.9747L46.0696 82.5L47.4431 81.5513L48.8159 82.5L48.2894 80.9747L49.6622 80.0331ZM54.7775 80.0331H53.0776L52.5577 78.5L52.0311 80.0331H50.3304L51.7114 80.9747L51.1841 82.5L52.5577 81.5513L53.9313 82.5L53.3965 80.9747L54.7775 80.0331ZM59.8855 80.0331H58.1856L57.6656 78.5L57.1457 80.0331H55.4458L56.8194 80.9747L56.292 82.5L57.6656 81.5513L59.0392 82.5L58.5119 80.9747L59.8855 80.0331ZM65 80.0331H63.3001L62.781 78.5L62.2536 80.0331H60.5611L61.9339 80.9747L61.4074 82.5L62.781 81.5513L64.1538 82.5L63.6272 80.9747L65 80.0331ZM39.4397 80.0331H37.7398L37.2198 78.5L36.7007 80.0331H35L36.3736 80.9747L35.8471 82.5L37.2198 81.5513L38.5934 82.5L38.0661 80.9747L39.4397 80.0331Z"
        fill="white" />
    <path
        d="M29.6872 23.5731L27.1445 23.2545C27.356 22.6877 27.7619 22.2539 28.3633 21.9524C28.9647 21.6508 29.8158 21.5 30.9166 21.5C32.18 21.5 33.0938 21.6649 33.658 21.994C34.2211 22.3237 34.5038 22.7375 34.5038 23.2359C34.5038 23.5285 34.389 23.793 34.1606 24.0299C33.9311 24.2669 33.5857 24.4749 33.1235 24.6531C33.4975 24.7177 33.7844 24.7935 33.9821 24.8797C34.303 25.0186 34.5537 25.2006 34.7322 25.4271C34.9107 25.6537 35 25.9233 35 26.2375C35 26.6319 34.8523 27.0092 34.5569 27.371C34.2615 27.7327 33.8365 28.0112 33.2818 28.2066C32.7272 28.4019 31.9983 28.5 31.0951 28.5C30.1919 28.5 29.5193 28.4279 29.0114 28.2831C28.5035 28.1383 28.0849 27.9266 27.7565 27.648C27.4282 27.3695 27.1764 27.0196 27 26.5977L29.6883 26.3482C29.7935 26.727 29.9582 26.9892 30.1802 27.1355C30.4023 27.2818 30.686 27.3546 31.0292 27.3546C31.3905 27.3546 31.6912 27.2625 31.9313 27.0776C32.1715 26.8926 32.2915 26.6468 32.2915 26.3385C32.2915 26.0302 32.1757 25.7814 31.9451 25.6091C31.7135 25.4368 31.4001 25.3506 31.0037 25.3506C30.7923 25.3506 30.5022 25.3877 30.1314 25.4613L30.2706 24.1176C30.4204 24.1332 30.5373 24.1406 30.6201 24.1406C30.9718 24.1406 31.2662 24.0619 31.5021 23.9051C31.7379 23.7484 31.8559 23.562 31.8559 23.3466C31.8559 23.1312 31.7677 22.9759 31.5913 22.8526C31.4149 22.7293 31.1727 22.6677 30.8645 22.6677C30.5564 22.6677 30.2897 22.7345 30.092 22.8682C29.8944 23.0019 29.7595 23.2366 29.6893 23.5724L29.6872 23.5731Z"
        fill="#006A63" />
    <path
        d="M36 24.9718C36 23.6855 36.2932 22.7847 36.8796 22.2708C37.466 21.7569 38.3587 21.5 39.5578 21.5C40.1338 21.5 40.6075 21.5564 40.9777 21.6686C41.348 21.7807 41.6496 21.927 41.8836 22.1075C42.1176 22.2872 42.3008 22.4766 42.4362 22.6756C42.5705 22.8739 42.6786 23.1056 42.7604 23.3707C42.9201 23.8757 43 24.4014 43 24.9495C43 26.1778 42.7369 27.0764 42.2116 27.646C41.6853 28.2156 40.7804 28.5 39.4948 28.5C38.7741 28.5 38.1924 28.4094 37.7479 28.2275C37.3043 28.0463 36.9397 27.7796 36.6559 27.4291C36.4492 27.1796 36.2885 26.8387 36.1738 26.4065C36.0592 25.9743 36.0019 25.4961 36.0019 24.9733L36 24.9718ZM38.3606 24.9762C38.3606 25.8377 38.4574 26.4266 38.65 26.7422C38.8427 27.0578 39.1218 27.2153 39.4883 27.2153C39.7298 27.2153 39.9393 27.1484 40.116 27.0147C40.2936 26.8811 40.4233 26.6694 40.5079 26.3798C40.5915 26.0902 40.6338 25.6394 40.6338 25.0275C40.6338 24.1289 40.537 23.5251 40.3443 23.2155C40.1517 22.9058 39.8623 22.7513 39.477 22.7513C39.0917 22.7513 38.7994 22.9088 38.6237 23.2244C38.4489 23.54 38.3606 24.1237 38.3606 24.9762Z"
        fill="#006A63" />
</svg>